<?xml version="1.0" encoding="utf-8"?>
<!-- Generator: Adobe Illustrator 27.1.1, SVG Export Plug-In . SVG Version: 6.00 Build 0)  -->
<svg version="1.1" id="Layer_1" xmlns="http://www.w3.org/2000/svg" xmlns:xlink="http://www.w3.org/1999/xlink" x="0px" y="0px"
	 viewBox="0 0 25.1 25.1" style="enable-background:new 0 0 25.1 25.1;" xml:space="preserve">
<style type="text/css">
	.st0{fill-opacity:0;}
	.st1{fill-opacity:0.85;}
</style>
<g>
	<rect x="0.1" class="st0" width="24.9" height="25.1"/>
	<path class="st1" d="M2,25.1h21.3c1,0,1.9-0.8,1.9-1.9c0-1-0.8-1.8-1.9-1.8H2c-1,0-1.8,0.8-1.8,1.8C0.1,24.2,0.9,25.1,2,25.1z
		 M2,14.4h21.3c1,0,1.9-0.8,1.9-1.8c0-1-0.8-1.9-1.9-1.9H2c-1,0-1.8,0.8-1.8,1.9C0.1,13.6,0.9,14.4,2,14.4z M2,3.8h21.3
		c1,0,1.9-0.8,1.9-1.8s-0.8-1.9-1.9-1.9H2c-1,0-1.8,0.8-1.8,1.9S0.9,3.8,2,3.8z"/>
</g>
</svg>
