<?xml version="1.0" encoding="UTF-8"?>
<!--Generator: Apple Native CoreSVG 175.5-->
<!DOCTYPE svg
PUBLIC "-//W3C//DTD SVG 1.1//EN"
       "http://www.w3.org/Graphics/SVG/1.1/DTD/svg11.dtd">
<svg version="1.1" xmlns="http://www.w3.org/2000/svg" xmlns:xlink="http://www.w3.org/1999/xlink" width="42.6514" height="46.0205">
 <g>
  <rect height="46.0205" opacity="0" width="42.6514" x="0" y="0"/>
  <path d="M5.98145 46.0205L36.6699 46.0205C40.7227 46.0205 42.6514 44.7998 42.6514 42.1143C42.6514 35.7178 34.5703 26.4648 21.3379 26.4648C8.08105 26.4648 0 35.7178 0 42.1143C0 44.7998 1.92871 46.0205 5.98145 46.0205ZM4.83398 42.334C4.19922 42.334 3.93066 42.1631 3.93066 41.6504C3.93066 37.6465 10.1318 30.1514 21.3379 30.1514C32.5195 30.1514 38.7207 37.6465 38.7207 41.6504C38.7207 42.1631 38.4766 42.334 37.8418 42.334ZM21.3379 23.4375C27.1484 23.4375 31.8848 18.2617 31.8848 11.9629C31.8848 5.71289 27.1729 0.805664 21.3379 0.805664C15.5518 0.805664 10.791 5.81055 10.791 12.0117C10.8154 18.2861 15.5273 23.4375 21.3379 23.4375ZM21.3379 19.751C17.7734 19.751 14.7217 16.333 14.7217 12.0117C14.7217 7.76367 17.7246 4.49219 21.3379 4.49219C24.9756 4.49219 27.9541 7.71484 27.9541 11.9629C27.9541 16.2842 24.9268 19.751 21.3379 19.751Z" fill="#000000" fill-opacity="0.85"/>
 </g>
</svg>
