<?xml version="1.0" encoding="UTF-8"?>
<!--Generator: Apple Native CoreSVG 175.5-->
<!DOCTYPE svg
PUBLIC "-//W3C//DTD SVG 1.1//EN"
       "http://www.w3.org/Graphics/SVG/1.1/DTD/svg11.dtd">
<svg version="1.1" xmlns="http://www.w3.org/2000/svg" xmlns:xlink="http://www.w3.org/1999/xlink" width="45.3369" height="37.0361">
 <g>
  <rect height="37.0361" opacity="0" width="45.3369" x="0" y="0"/>
  <path d="M0 18.5059C0 19.1162 0.268555 19.6777 0.756836 20.1416L16.9678 36.3281C17.4561 36.792 17.9688 37.0117 18.5547 37.0117C19.751 37.0117 20.7031 36.1328 20.7031 34.9121C20.7031 34.3262 20.4834 33.7402 20.0928 33.374L14.624 27.8076L4.95605 18.9941L4.44336 20.1904L12.3047 20.6787L43.1885 20.6787C44.458 20.6787 45.3369 19.7754 45.3369 18.5059C45.3369 17.2363 44.458 16.333 43.1885 16.333L12.3047 16.333L4.44336 16.8213L4.95605 18.042L14.624 9.2041L20.0928 3.6377C20.4834 3.24707 20.7031 2.68555 20.7031 2.09961C20.7031 0.878906 19.751 0 18.5547 0C17.9688 0 17.4561 0.195312 16.9189 0.732422L0.756836 16.8701C0.268555 17.334 0 17.8955 0 18.5059Z" fill="#000000" fill-opacity="0.85"/>
 </g>
</svg>
