<?xml version="1.0" encoding="UTF-8"?>
<!--Generator: Apple Native CoreSVG 175.5-->
<!DOCTYPE svg
PUBLIC "-//W3C//DTD SVG 1.1//EN"
       "http://www.w3.org/Graphics/SVG/1.1/DTD/svg11.dtd">
<svg version="1.1" xmlns="http://www.w3.org/2000/svg" xmlns:xlink="http://www.w3.org/1999/xlink" width="45.3369" height="37.0361">
 <g>
  <rect height="37.0361" opacity="0" width="45.3369" x="0" y="0"/>
  <path d="M45.3369 18.5059C45.3369 17.8955 45.0928 17.334 44.6045 16.8701L28.418 0.732422C27.8809 0.195312 27.3682 0 26.7822 0C25.5859 0 24.6582 0.878906 24.6582 2.09961C24.6582 2.68555 24.8535 3.24707 25.2441 3.6377L30.7129 9.2041L40.4053 18.042L40.8936 16.8213L33.0322 16.333L2.14844 16.333C0.878906 16.333 0 17.2363 0 18.5059C0 19.7754 0.878906 20.6787 2.14844 20.6787L33.0322 20.6787L40.8936 20.1904L40.4053 18.9941L30.7129 27.8076L25.2441 33.374C24.8535 33.7402 24.6582 34.3262 24.6582 34.9121C24.6582 36.1328 25.5859 37.0117 26.7822 37.0117C27.3682 37.0117 27.8809 36.792 28.3691 36.3281L44.6045 20.1416C45.0928 19.6777 45.3369 19.1162 45.3369 18.5059Z" fill="#000000" fill-opacity="0.85"/>
 </g>
</svg>
