<?xml version="1.0" encoding="UTF-8"?>
<!--Generator: Apple Native CoreSVG 175.5-->
<!DOCTYPE svg
PUBLIC "-//W3C//DTD SVG 1.1//EN"
       "http://www.w3.org/Graphics/SVG/1.1/DTD/svg11.dtd">
<svg version="1.1" xmlns="http://www.w3.org/2000/svg" xmlns:xlink="http://www.w3.org/1999/xlink" width="49.8047" height="49.8291">
 <g>
  <rect height="49.8291" opacity="0" width="49.8047" x="0" y="0"/>
  <path d="M24.9023 49.8047C38.5254 49.8047 49.8047 38.501 49.8047 24.9023C49.8047 11.2793 38.501 0 24.8779 0C11.2793 0 0 11.2793 0 24.9023C0 38.501 11.3037 49.8047 24.9023 49.8047ZM24.9023 45.6543C13.3789 45.6543 4.1748 36.4258 4.1748 24.9023C4.1748 13.3789 13.3545 4.15039 24.8779 4.15039C36.4014 4.15039 45.6543 13.3789 45.6543 24.9023C45.6543 36.4258 36.4258 45.6543 24.9023 45.6543ZM20.6299 38.5742L30.5664 38.5742C31.5674 38.5742 32.3486 37.8418 32.3486 36.8408C32.3486 35.8887 31.5674 35.1318 30.5664 35.1318L27.5391 35.1318L27.5391 22.7051C27.5391 21.3867 26.8799 20.5078 25.6348 20.5078L21.0449 20.5078C20.0439 20.5078 19.2627 21.2646 19.2627 22.2168C19.2627 23.2178 20.0439 23.9502 21.0449 23.9502L23.6572 23.9502L23.6572 35.1318L20.6299 35.1318C19.6289 35.1318 18.8477 35.8887 18.8477 36.8408C18.8477 37.8418 19.6289 38.5742 20.6299 38.5742ZM24.6826 16.4551C26.4648 16.4551 27.8564 15.0391 27.8564 13.2568C27.8564 11.4746 26.4648 10.0586 24.6826 10.0586C22.9248 10.0586 21.5088 11.4746 21.5088 13.2568C21.5088 15.0391 22.9248 16.4551 24.6826 16.4551Z" fill="#000000" fill-opacity="0.85"/>
 </g>
</svg>
